<svg version="1.1" class="icon icon-location" xmlns="http://www.w3.org/2000/svg" xmlns:xlink="http://www.w3.org/1999/xlink" x="0px" y="0px" viewBox="0 0 16 23" style="enable-background:new 0 0 16 23;" xml:space="preserve">
<path fill="currentColor" d="M7.1,1.5C2.8,2.1-0.3,6,0,10.3c0.5,5.6,5.6,9.7,7.4,11c0.3,0.3,0.8,0.2,1.2,0c1.8-1.4,7.4-6.3,7.4-11.8c0-4.4-3.6-8-8-8
	C7.7,1.5,7.4,1.5,7.1,1.5 M8,12.7c-1.8,0-3.2-1.4-3.2-3.2S6.2,6.3,8,6.3c1.8,0,3.2,1.4,3.2,3.2c0,0,0,0,0,0
	C11.2,11.2,9.7,12.7,8,12.7"></path>
</svg>