<svg xmlns="http://www.w3.org/2000/svg" class="icon icon-web" width="20.797" height="20.796" viewBox="0 0 20.797 20.796">
  <path id="Web" d="M1484.948,6.355a10.406,10.406,0,0,0-6.815-5.979h0a10.275,10.275,0,0,0-1.146-.246h0c-.165-.026-.988-.1-.988-.1s-.4-.024-.6-.024-.973.044-1.14.062c0,0-.337.037-.5.063h0a10.278,10.278,0,0,0-1.146.246s0,0,0,0c-.162.045-.474.149-.474.149-.255.089-.54.188-.8.3a10.4,10.4,0,0,0,0,19.162q.395.167.8.3h0q.239.079.482.146h0a10.268,10.268,0,0,0,1.146.246h0q.247.038.5.065l.542.039c.185.012.4.019.6.019s.417-.008.6-.02l.486-.05s.337-.031.5-.056h0a10.276,10.276,0,0,0,1.146-.246h0a10.408,10.408,0,0,0,6.815-14.074m-9-1.6v-2.7a9.939,9.939,0,0,1,2.584,2.7Zm3.246,1.2a10.382,10.382,0,0,1,.975,3.891h-4.22V5.958Zm-4.427-1.2H1472.2a9.96,9.96,0,0,1,2.566-2.708Zm0,1.2V9.849h-4.2a10.382,10.382,0,0,1,.975-3.891Zm-4.523.132a11.657,11.657,0,0,0-.8,3.759h-3.333a9.149,9.149,0,0,1,1.136-3.891h3.052a.826.826,0,0,0-.052.132m-.8,4.963a11.851,11.851,0,0,0,.8,3.729c.019.047.037.092.057.139h-3.051a9.312,9.312,0,0,1-1.14-3.868Zm1.124,0h4.2v3.868h-3.223a10.684,10.684,0,0,1-.978-3.868m4.2,5.049v2.656a9.683,9.683,0,0,1-2.56-2.656Zm1.181,0h2.577a9.663,9.663,0,0,1-2.577,2.648Zm0-1.181V11.054h4.219a10.684,10.684,0,0,1-.978,3.868Zm4.541-.139a11.848,11.848,0,0,0,.8-3.729h3.332a9.311,9.311,0,0,1-1.14,3.868h-3.051c.019-.046.038-.092.057-.139m.8-4.934a11.657,11.657,0,0,0-.8-3.759.837.837,0,0,0-.052-.132h3.052a9.153,9.153,0,0,1,1.136,3.891Zm1.411-5.1h-2.834a11.12,11.12,0,0,0-1.608-2.239,10.628,10.628,0,0,0-1.392-1.251,9.233,9.233,0,0,1,5.835,3.489m-8.839-3.5a10.716,10.716,0,0,0-1.393,1.262,11.082,11.082,0,0,0-1.608,2.233h-2.834a9.24,9.24,0,0,1,5.835-3.5M1468.038,16.1h2.832a10.877,10.877,0,0,0,1.6,2.208,10.708,10.708,0,0,0,1.393,1.261,9.2,9.2,0,0,1-5.827-3.469m8.831,3.464a10.635,10.635,0,0,0,1.392-1.252,10.9,10.9,0,0,0,1.6-2.212h2.832a9.189,9.189,0,0,1-5.827,3.464" transform="translate(-1464.969 -0.004)" fill="currentColor"></path>
</svg>