<svg version="1.1" class="icon icon-calender" xmlns="http://www.w3.org/2000/svg" xmlns:xlink="http://www.w3.org/1999/xlink" x="0px" y="0px" viewBox="0 0 40 40" style="enable-background:new 0 0 40 40;" xml:space="preserve">
<g>
	<path d="M34.3,3.1h-3.6v4.2c0,1.6-1.4,2.9-3,2.9c-1.6,0-2.9-1.3-2.9-2.9V3.1h-9.5v4.2c0,1.6-1.4,2.9-3,2.9
		c-1.6,0-2.9-1.3-2.9-2.9V3.1H5.7c-2.5,0-4.5,2-4.5,4.5v27.9c0,2.5,2,4.5,4.5,4.5h28.5c2.5,0,4.5-2,4.5-4.5V7.5
		C38.7,5.1,36.7,3.1,34.3,3.1 M36.9,35.4c0,1.5-1.2,2.7-2.7,2.7H5.7c-1.5,0-2.7-1.2-2.7-2.7v-21h33.9L36.9,35.4z"></path>
	<rect x="8.4" y="19.1" width="5.3" height="5.3"></rect>
	<rect x="17.3" y="19.1" width="5.3" height="5.3"></rect>
	<rect x="26.2" y="19.1" width="5.3" height="5.3"></rect>
	<rect x="8.4" y="28" width="5.3" height="5.3"></rect>
	<rect x="17.3" y="28" width="5.3" height="5.3"></rect>
	<rect x="26.2" y="28" width="5.3" height="5.3"></rect>
	<path d="M12.3,9c1,0,1.8-0.8,1.8-1.8c0,0,0,0,0,0V1.9c0-1-0.8-1.8-1.8-1.8c-1,0-1.8,0.8-1.8,1.8c0,0,0,0,0,0v5.3
		C10.5,8.2,11.3,9,12.3,9L12.3,9"></path>
	<path d="M27.7,9c1,0,1.8-0.8,1.8-1.8c0,0,0,0,0,0V1.9c0-1-0.8-1.8-1.8-1.8s-1.8,0.8-1.8,1.8v5.3
		C25.9,8.2,26.7,9,27.7,9L27.7,9"></path>
</g>
</svg>