<svg class="icon icon-phone" xmlns="http://www.w3.org/2000/svg" width="21.571" height="20.604" viewBox="0 0 21.571 20.604">
  <path id="Phone" d="M2810.622,19.791c-.995.481-5.145-1.92-6.6-3.379a13.022,13.022,0,0,1-1.14-1.3q-.345-.451-.641-.921a23.524,23.524,0,0,1-1.18-2.423c-.012-.035-.023-.069-.035-.1-.115-.463.32-1,.823-1.452.8-.5,1.625-1.1,1.625-1.46a4.367,4.367,0,0,0-.032-.46c-.034-.172-1.57-3.268-1.57-3.268a4.657,4.657,0,0,0-.266-.553h0a1.353,1.353,0,0,0-.234-.268,8.81,8.81,0,0,0-2.462.144A8.377,8.377,0,0,0,2796.8,5.55l-.107.088-.118.1c-2.035,1.881-.038,7.113.091,7.445a21.754,21.754,0,0,0,1.983,3.789,18.109,18.109,0,0,0,5.821,5.6,18.594,18.594,0,0,0,3.79,1.73,7.268,7.268,0,0,0,6.872-.964s2.162-2.681,2.1-3.952a1.286,1.286,0,0,0-.63-.878,6.5,6.5,0,0,0-1.373-.717c-.4-.164-.812-.311-1.225-.445q-.31-.1-.623-.192a1.232,1.232,0,0,0-.567-.118,1.706,1.706,0,0,0-.471.175,1.14,1.14,0,0,0-.407.506q-.163.294-.333.584a13.864,13.864,0,0,1-.87,1.343c-.037.048-.074.1-.112.144" transform="translate(-2795.663 -4.14)" fill="currentColor"></path>
</svg>