<svg version="1.1" xmlns="http://www.w3.org/2000/svg" xmlns:xlink="http://www.w3.org/1999/xlink" x="0px" y="0px" viewBox="0 0 100 100" style="enable-background:new 0 0 100 100;" xml:space="preserve">
                <g>
                    <g>
                        <path d="M42.334,82.668C20.094,82.668,2,64.574,2,42.334S20.094,2,42.334,2c22.239,0,40.333,18.094,40.333,40.334
                            S64.573,82.668,42.334,82.668z M42.334,11.116c-17.214,0-31.218,14.004-31.218,31.218S25.12,73.552,42.334,73.552
                            c17.213,0,31.217-14.004,31.217-31.218S59.547,11.116,42.334,11.116z"></path>
                    </g>
                    <g>
                        <path d="M93.442,98c-1.166,0-2.333-0.445-3.223-1.335L64.666,71.111c-1.78-1.779-1.78-4.666,0-6.445
                            c1.778-1.78,4.667-1.78,6.445,0l25.554,25.554c1.78,1.779,1.78,4.666,0,6.445C95.776,97.555,94.608,98,93.442,98z"></path>
                    </g>
                </g>
              </svg>